<svg height="512" viewBox="0 0 60 60" width="512" xmlns="http://www.w3.org/2000/svg"><g id="Page-1" fill="none" fill-rule="evenodd"><g id="022---Cookie" fill="rgb(0,0,0)" fill-rule="nonzero"><path id="Shape" d="m56.028 15.278c-1.0321457-1.6028358-2.3077861-3.0350214-3.781-4.245-.514-.468-1.028-.935-1.516-1.423-.458-.457-.9-.933-1.341-1.41-1.2520559-1.4899934-2.7223659-2.78195122-4.361-3.832-2.224589-1.39974833-4.6247995-2.49863987-7.138-3.268-2.5472429-.7042832-5.1753142-1.07405532-7.818-1.1-1.866872.09176199-3.7049369.4974412-5.437 1.2-.751.257-1.46.5-2.167.69-.616.165-1.24.309-1.862.453-1.9394869.35009099-3.8158369.9877871-5.567 1.892-1.7077989 1.09391041-3.2481269 2.42944519-4.573 3.965-.4.423-.8.845-1.209 1.253-.487.486-1 .956-1.522 1.428-1.48708723 1.2208365-2.77574872 2.6650144-3.82 4.281-.85738902 1.6760479-1.44238204 3.4779479-1.733 5.338-.152.723-.3 1.448-.494 2.156-.162.605-.35 1.212-.538 1.823-.67513864 1.8559508-1.06326781 3.8040153-1.151 5.777.03362137 2.6222898.40775191 5.2291023 1.113 7.755.60810609 1.9289417 1.49806165 3.7573775 2.641 5.426.305.5.61.989.9 1.487l.43.746c1.05383952 2.0437969 2.37659199 3.9372869 3.933 5.63 1.7218451 1.5807638 3.6459993 2.9258558 5.722 4l.649.373c4.4023354 2.7656093 9.4862444 4.2542582 14.685 4.3 2.5953556-.0208791 5.1766188-.3840111 7.677-1.08.577-.155 1.164-.294 1.751-.434 1.9952383-.3715752 3.9257949-1.031488 5.731-1.959 1.534338-1.0009505 2.8870082-2.2558903 4-3.711.543-.633 1.056-1.231 1.6-1.777.518-.518 1.074-1.011 1.632-1.507 1.4677014-1.1729131 2.7369489-2.5745216 3.759-4.151.9600867-1.8554105 1.6526269-3.8374154 2.057-5.887.128-.518.255-1.035.392-1.546.7803097-2.4848785 1.2268866-5.0624473 1.328-7.665-.0682492-2.6046765-.4797993-5.1889692-1.224-7.686-.5871744-2.5421984-1.5113493-4.9945576-2.748-7.292zm.716 22.122c-.14.524-.271 1.054-.4 1.584-.361478 1.8649346-.9821639 3.6701072-1.844 5.363-.9195343 1.3887022-2.0528606 2.6232786-3.358 3.658-.573.509-1.164 1.036-1.717 1.587-.6.6-1.163 1.256-1.707 1.89-.9705591 1.2802962-2.1480833 2.3895483-3.484 3.282-1.6383267.8280173-3.3867151 1.4173239-5.192 1.75-.606.144-1.21.287-1.8.446-2.3319717.6515592-4.7398045.9921728-7.161 1.013-2.4219665-.039558-4.8279714-.4003747-7.155-1.073-2.3007478-.6925274-4.4990588-1.6882745-6.537-2.961l-.654-.377c-1.9214164-.9880593-3.7035663-2.2261491-5.3-3.682-1.43021412-1.5683331-2.64583837-3.3196391-3.615-5.208l-.433-.754c-.3-.514-.612-1.024-.927-1.535-1.03781363-1.5049408-1.85038058-3.1533197-2.412-4.893-.66031704-2.3559468-1.012583-4.7875231-1.048-7.234.09524912-1.7723675.45315216-3.5207677 1.062-5.188.2-.635.391-1.266.559-1.9.2-.743.359-1.5.519-2.261.25191939-1.6511904.76038997-3.2528559 1.507-4.747.94455004-1.4343994 2.10294512-2.7158845 3.435-3.8.542-.492 1.081-.984 1.59-1.492.42-.421.833-.855 1.246-1.291 1.1945736-1.39436155 2.5830582-2.61008539 4.123-3.61 1.5813019-.80053514 3.2717112-1.36422954 5.017-1.673.644-.149 1.289-.3 1.926-.468.776-.207 1.552-.474 2.3-.732 1.524946-.62669052 3.1431967-.99636398 4.789-1.094 2.4676819.02469331 4.9216445.37060119 7.3 1.029 2.3428002.7289758 4.5801294 1.7614083 6.655 3.071 1.465238.95322973 2.7797618 2.12012237 3.9 3.462.459.494.919.989 1.394 1.464.51.51 1.047 1 1.584 1.488 1.319693 1.0739973 2.4664216 2.3445052 3.4 3.767 1.1452994 2.1463697 2.0014035 4.4349183 2.546 6.806.6934896 2.3294177 1.0794274 4.7395119 1.148 7.169-.1058612 2.425859-.5280988 4.8275031-1.256 7.144z"/><path id="Shape" d="m12.012 28c.5522847-.0033137.9973137-.4537153.994-1.006s-.4537153-.9973137-1.006-.994c-1.383 0-4 1.045-4 5 0 .5522847.44771525 1 1 1s1-.4477153 1-1c0-2.793 1.67-2.989 2.012-3z"/><path id="Shape" d="m46.243 34.03c-.3475751-.0897157-.7165715.0137487-.9668327.2710941-.2502613.2573454-.3433879.6290855-.2440075.9740215.0993804.3449361.3760192.6101421.7248402.6948844.126.031 3.066.815 2.263 4.834-.1080912.5398874.2405837 1.0655818.78 1.176.0657696.0137352.132813.0204396.2.02.4748929-.000378.8840215-.3347017.979-.8.94-4.7-2.033-6.744-3.736-7.17z"/><path id="Shape" d="m26 49c-.9801183.1205462-1.9627122-.2041721-2.678-.885-.364091-.5539872-.490212-1.2310766-.35-1.879.1322722-.5362685-.1952315-1.0782278-.7315-1.2105s-1.0782278.1952315-1.2105.7315c-.2806531 1.2394429-.0234223 2.5397665.708 3.579 1.0782007 1.1965554 2.6582783 1.8134604 4.262 1.664.5522847 0 1-.4477153 1-1s-.4477153-1-1-1z"/><path id="Shape" d="m38.555 13.832c.5645717-.4163238 1.2785613-.5751974 1.9663992-.4375536.6878379.1376437 1.2857103.5590349 1.6466008 1.1605536.1982824.297245.5400812.4661283.8966441.4430332s.6737195-.2346599.832-.555.1336383-.7007882-.0646441-.9980332c-.6536333-1.0451332-1.7092742-1.7745184-2.9180468-2.0161972-1.2087727-.2416789-2.463711.0257352-3.4689532.7391972-.297245.1982824-.4661282.5400812-.4430331.8966441s.2346599.6737195.555.832c.32034.1582805.7007881.1336383.9980331-.0646441z"/><path id="Shape" d="m32.082 37.97c1.4305292-.3468674 2.6802882-1.2147457 3.505-2.434.4703625-.878636.5431311-1.9163168.2-2.852-.1128959-.3394023-.398285-.5927937-.748664-.6647242-.350379-.0719304-.712517.0485281-.95.316-.2374831.2674719-.3142319.6413219-.201336.9807242.1658478.4059445.1457517.8641344-.055 1.254-.5563609.7311132-1.3484716 1.2472924-2.242 1.461-.4886908.1245979-.8081251.5935941-.7451022 1.0939654s.4887778.8755092.9931022.8750346c.0822727.0003241.1642562-.0097558.244-.03z"/><path id="Shape" d="m15 21c.0822727.0003241.1642562-.0097558.244-.03.5357071-.1342174.8611901-.677286.727-1.213-.2428957-.8052005-.1345971-1.6755241.2982258-2.3966416.4328228-.7211176 1.1499482-1.2260164 1.9747742-1.3903584.5320593-.1373346.8536288-.6782442.7200974-1.2112708-.1335314-.5330265-.6721308-.8584506-1.2060974-.7287292-1.3456931.282707-2.5126099 1.1136171-3.2199652 2.2927956-.7073552 1.1791784-.8911048 2.5998622-.5070348 3.9202044.1113683.4445697.5106935.7565296.969.757z"/><path id="Shape" d="m50.589 21.1c-1.0179854-1.9577367-3.4274589-2.7236354-5.389-1.713l-1.776.92c-1.9611888 1.0169837-2.7288895 3.4296936-1.716 5.393l.92 1.775c.4859002.9442175 1.3291506 1.6549674 2.342 1.974 1.0107252.3229472 2.108521.2293646 3.05-.26l1.776-.92c1.959484-1.0180398 2.7256611-3.4297309 1.713-5.392zm-.726 4.221c-.1592502.5063246-.5147407.9277267-.987 1.17l-1.776.919c-.4714125.2453064-1.0210707.2929135-1.5276398.1323124-.506569-.1606012-.9283946-.5162047-1.1723602-.9883124l-.919-1.776c-.2453064-.4714125-.2929135-1.0210707-.1323124-1.5276398.1606012-.506569.5162047-.9283946.9883124-1.1723602l1.776-.919c.2830046-.1480858.5975929-.2256179.917-.226.206588.0020452.4116396.0357708.608.1.5064247.1595163.9280499.5148913 1.171.987l.919 1.776c.2467786.4699279.2953874 1.0190279.135 1.525z"/><path id="Shape" d="m39.294 43.518-1.877-.691c-2.073276-.7626811-4.372277.2997394-5.135 2.373l-.691 1.876c-.3666642.99549-.3228527 2.0958642.1217964 3.0590517.444649.9631874 1.2537121 1.7102884 2.2492036 2.0769483l1.877.691c.995618.3666137 2.0961009.3226618 3.0593103-.1221849.9632093-.4448467 1.7102279-1.2541412 2.0766897-2.2498151l.691-1.877c.3666137-.995618.3226618-2.0961009-.1221849-3.0593103-.4448467-.9632093-1.2541412-1.7102279-2.2498151-2.0766897zm.5 4.444-.694 1.877c-.1832309.497837-.5567402.9024842-1.0383449 1.1249076-.4816046.2224233-1.0318461.2443992-1.5296551.0610924l-1.877-.691c-1.036304-.3819681-1.566819-1.5316411-1.185-2.568l.691-1.877c.3803537-1.0368173 1.5290913-1.5691045 2.566-1.189l1.873.7c1.0346769.3803747 1.5664716 1.5262605 1.189 2.562z"/><path id="Shape" d="m20.278 36.977c-.246349-2.1953153-2.2256776-3.775286-4.421-3.529l-1.987.223c-2.1943083.2489473-3.7730133 2.2271376-3.529 4.422l.223 1.987c.2262584 2.0211969 1.9331828 3.5508455 3.967 3.555.1520308-.0002447.3039309-.0089247.455-.026l1.987-.223c2.1945081-.2473626 3.7733319-2.2263759 3.527-4.421zm-3.528 4.423-1.988.224c-1.0976519.1228349-2.0870725-.6673584-2.21-1.765l-.223-1.987c-.0592833-.5271192.0932626-1.0561987.4240781-1.4708434.3308156-.4146446.8128011-.6808876 1.3399219-.7401566l1.987-.223c.0746767-.0087816.1498088-.0131226.225-.013 1.0170107.0006628 1.8715865.7644453 1.986 1.775l.223 1.988c.0595667.52728-.0928483 1.0566188-.4236919 1.4714862s-.8129936.6812529-1.3403081.7405138z"/><path id="Shape" d="m26.529 15.8 1.933.512c.3367404.0893081.6836182.1346845 1.032.135 1.8125528-.0031599 3.3964417-1.224724 3.86-2.977l.512-1.933c.2719964-1.0255979.12536-2.11724381-.4076405-3.03470969-.5330004-.91746589-1.4086883-1.58557044-2.4343595-1.85729031l-1.933-.512c-1.0255952-.27166017-2.1171032-.12473816-3.0343635.40843933-.9172604.5331775-1.5851215 1.40892703-1.8566365 2.43456067l-.512 1.933c-.5628843 2.1347009.7078315 4.3223359 2.841 4.891zm-.908-4.38.512-1.933c.2326361-.8766201 1.0260367-1.48695988 1.933-1.487.1732362.00016134.3457044.02302262.513.068l1.933.512c1.0670376.28337691 1.7026332 1.37776517 1.42 2.445l-.512 1.934c-.2833769 1.0670376-1.3777652 1.7026332-2.445 1.42l-1.933-.512c-.5128356-.1358599-.9506796-.4699122-1.2171798-.9286452-.2665002-.4587329-.3398184-1.0045559-.2038202-1.5173548z"/><path id="Shape" d="m31.314 25.366-.745-1.856c-.823353-2.0485433-3.1507587-3.0426141-5.2-2.221l-1.856.745c-2.0485433.823353-3.0426141 3.1507587-2.221 5.2l.745 1.856c.8229584 2.0489355 3.1504808 3.0435037 5.2 2.222l1.856-.745c2.0489355-.8229584 3.0435037-3.1504808 2.222-5.2zm-1.873 2.276c-.2068163.488674-.6008593.8740726-1.094 1.07l-1.856.746c-1.0247596.4107519-2.1885208-.0865322-2.6-1.111l-.745-1.856c-.4108622-1.0244818.0859245-2.1881263 1.11-2.6l1.856-.745c1.0244818-.4108622 2.1881263.0859245 2.6 1.11l.746 1.856c.1987967.491822.1926756 1.0427165-.017 1.53z"/></g></g></svg>